<?xml version="1.0" encoding="utf-8"?>
<!-- Generator: Adobe Illustrator 24.3.0, SVG Export Plug-In . SVG Version: 6.00 Build 0)  -->
<svg version="1.1" id="Слой_1" xmlns="http://www.w3.org/2000/svg" xmlns:xlink="http://www.w3.org/1999/xlink" x="0px" y="0px"
	 viewBox="0 0 22 22" style="enable-background:new 0 0 22 22;" xml:space="preserve">
<style type="text/css">
	.st0{fill-rule:evenodd;clip-rule:evenodd;fill:#FFE595;}
	.st1{fill:#EEB39D;}
	.st2{fill:url(#SVGID_1_);}
	.st3{fill:url(#SVGID_2_);}
	.st4{fill:url(#SVGID_3_);}
	.st5{fill-rule:evenodd;clip-rule:evenodd;fill:url(#SVGID_4_);}
	.st6{fill:url(#SVGID_5_);}
	.st7{fill:url(#SVGID_6_);}
	.st8{fill:url(#SVGID_7_);}
	.st9{fill:url(#SVGID_8_);}
	.st10{fill:url(#SVGID_9_);}
	.st11{fill:url(#SVGID_10_);}
	.st12{fill:url(#SVGID_11_);}
	.st13{fill:url(#SVGID_12_);}
	.st14{fill:url(#SVGID_13_);}
	.st15{fill:url(#SVGID_14_);}
	.st16{fill:url(#SVGID_15_);}
	.st17{fill:url(#SVGID_16_);}
	.st18{fill:url(#SVGID_17_);}
	.st19{fill:#FFE9DA;}
</style>
<path class="st0" d="M11,22c6.1,0,11-4.9,11-11c0-6.1-4.9-11-11-11S0,4.9,0,11C0,17.1,4.9,22,11,22z"/>
<path class="st1" d="M12.1,14.1c-0.3,0.4-0.8,0.3-1,0.3c-0.5-0.1-1-0.7-1.3-0.2c-0.3,0.5,1.3,1.5,2.4,0.8c1.1-0.7,1-1.2,0.8-1.3
	C12.8,13.5,12.5,13.6,12.1,14.1z"/>
<path class="st1" d="M12.1,14.1c-0.3,0.4-0.8,0.3-1,0.3c-0.5-0.1-1-0.7-1.3-0.2c-0.3,0.5,1.3,1.5,2.4,0.8c1.1-0.7,1-1.2,0.8-1.3
	C12.8,13.5,12.5,13.6,12.1,14.1z"/>
<g>
	
		<radialGradient id="SVGID_1_" cx="-493.3376" cy="903.0441" r="1" gradientTransform="matrix(-0.2064 1.9816 1.2461 0.1298 -1221.0618 871.7784)" gradientUnits="userSpaceOnUse">
		<stop  offset="0" style="stop-color:#EAAE96"/>
		<stop  offset="0.483" style="stop-color:#D28D74"/>
	</radialGradient>
	<path class="st2" d="M5.1,11.5c0.2-0.7,1.1-0.8,1.6-0.8h0.6l-0.1,1.3l-0.1,1.3H6.6c-0.5-0.2-0.9-0.4-0.9-0.4
		C5.6,12.9,4.8,12.4,5.1,11.5z"/>
</g>
<g>
	
		<radialGradient id="SVGID_2_" cx="-479.5192" cy="986.5375" r="1" gradientTransform="matrix(-0.177 1.8304 1.0705 0.1035 -1124.1345 787.0225)" gradientUnits="userSpaceOnUse">
		<stop  offset="0" style="stop-color:#EAAE96"/>
		<stop  offset="0.483" style="stop-color:#D28D74"/>
	</radialGradient>
	<path class="st3" d="M17.3,12.3c-0.1,0.5-0.9,0.9-1.3,1h-0.4v-1.2l0.1-1.1l0.3-0.1l0.5,0.1C17.2,11,17.5,11.7,17.3,12.3z"/>
</g>
<g>
	
		<radialGradient id="SVGID_3_" cx="-599.6745" cy="477.5654" r="1" gradientTransform="matrix(-1.1804 8.6623 7.0732 0.9639 -4073.3154 4742.4512)" gradientUnits="userSpaceOnUse">
		<stop  offset="0" style="stop-color:#FFD6C6"/>
		<stop  offset="0.483" style="stop-color:#F7BEA9"/>
	</radialGradient>
	<path class="st4" d="M8.2,5.9c-1.5,0.8-1.7,3.2-1.6,4.3v4.3c0,1.2,0.3,0.9,2,1.9c1.6,1,7.2,0.1,7.3-0.8c0.1-0.9,0-4.5,0-5.6
		c0-1.1-0.3-2.9-1.2-3.8C13.8,5.4,10.1,4.9,8.2,5.9z"/>
</g>
<g>
	
		<radialGradient id="SVGID_4_" cx="-587.3607" cy="457.5663" r="1" gradientTransform="matrix(0.633 9.2178 8.2168 -0.5643 -3377.2971 5684.23)" gradientUnits="userSpaceOnUse">
		<stop  offset="0" style="stop-color:#754D40"/>
		<stop  offset="0.5572" style="stop-color:#552E22"/>
	</radialGradient>
	<path class="st5" d="M6.6,11.8v6.8c0,0.3,0.2,0.6,0.5,0.7c0.1,0.1,0.3,0.2,0.4,0.2c1.1,0.5,3.3,1.6,3.5,1.6c0.1,0,0.2,0,0.4,0
		c0.3,0,0.5-0.1,0.8-0.2c1.1-0.5,2.8-1.3,3.5-1.6c0.3-0.2,0.3-0.6,0.3-0.9c0-1.4,0.1-5.5,0-7.5l-0.1,2.9c0,0.2-0.1,0.6-0.3,0.6
		c0,0-0.1,0-0.1,0c-0.3,0-0.8,0.1-1.1,0.1c-0.3,0-0.7-0.2-0.8-0.4c0,0,0,0,0,0c-0.1-0.2-0.1-0.3-0.2-0.6c0-0.3-0.5-0.5-0.9-0.2
		c-0.1,0.1-0.3,0.2-0.4,0.3c-0.3,0.2-0.5,0.4-0.8,0.4c-0.4,0.1-0.6-0.1-0.7-0.3c0,0-0.1-0.1-0.1-0.1c-0.2-0.1-0.9-0.2-1.1,0.5
		c-0.2,0.6-0.5,0.6-1,0.5c-0.1,0-0.1,0-0.2,0c-0.2,0-0.4-0.1-0.5-0.1c-0.1,0-0.3-0.1-0.4-0.1c0,0-0.1,0-0.1,0c-0.2,0-0.4,0-0.4-0.2
		c0,0,0-0.1,0-0.2C6.8,13.8,6.7,12.7,6.6,11.8c0.1-0.5,0.1-0.9,0-1.2L6.6,11.8z M11.1,14.4c0.2,0.1,0.7,0.1,1-0.3
		c0.4-0.4,0.7-0.6,0.9-0.5c0.2,0.1,0.3,0.7-0.8,1.3c-1.1,0.7-2.7-0.3-2.4-0.8c0.2-0.3,0.5-0.1,0.8,0C10.7,14.3,10.9,14.3,11.1,14.4z
		"/>
</g>
<g>
	
		<radialGradient id="SVGID_5_" cx="-549.1085" cy="607.4808" r="1" gradientTransform="matrix(0.4478 4.9066 2.6216 -0.2393 -1340.7452 2846.1653)" gradientUnits="userSpaceOnUse">
		<stop  offset="0" style="stop-color:#5C3724"/>
		<stop  offset="0.5464" style="stop-color:#391E13"/>
	</radialGradient>
	<path class="st6" d="M6.7,10.6c0-0.7,0-1.1,0.1-1.2c0,0,0-0.1,0-0.1c0-0.7,0.2-2.1,0.8-2.8c0.8-0.9-0.2-1.2-0.4-1.2
		c-0.2,0-1.2,0.2-1.5,1.9c-0.2,1,0.1,2.4,0.5,3.6C6.2,11.1,6.7,11,6.7,10.6z"/>
</g>
<g>
	
		<radialGradient id="SVGID_6_" cx="-524.717" cy="674.3387" r="1" gradientTransform="matrix(-0.1317 2.9625 2.184 9.706800e-02 -1535.3284 1495.5795)" gradientUnits="userSpaceOnUse">
		<stop  offset="0" style="stop-color:#693626"/>
		<stop  offset="0.522" style="stop-color:#381B12"/>
		<stop  offset="1" style="stop-color:#391E13"/>
	</radialGradient>
	<path class="st7" d="M7.7,6.8C7.2,7.6,6.9,8.7,6.9,9.4c0,0.2-0.3,0.2-0.4,0.1C5.3,7,6.2,6.3,6.5,5.9C6.7,5.6,8.7,5.3,7.7,6.8z"/>
</g>
<g>
	
		<radialGradient id="SVGID_7_" cx="-537.2927" cy="468.95" r="1" gradientTransform="matrix(0.4098 4.2925 6.9571 -0.6643 -3034.5815 2620.8669)" gradientUnits="userSpaceOnUse">
		<stop  offset="0" style="stop-color:#6D4833"/>
		<stop  offset="0.4461" style="stop-color:#432319"/>
	</radialGradient>
	<path class="st8" d="M10.7,4.8c0,1.4-0.1,1.2-1.8,2.2c-1.7,1-3.3-0.8-3.2-2.2s1.1-2.5,2.5-2.5C9.6,2.3,10.7,3.4,10.7,4.8z"/>
</g>
<g>
	
		<radialGradient id="SVGID_8_" cx="-556.6038" cy="654.7503" r="1" gradientTransform="matrix(-0.1403 4.3979 2.3297 7.432851e-02 -1587.9448 2406.228)" gradientUnits="userSpaceOnUse">
		<stop  offset="0" style="stop-color:#693626"/>
		<stop  offset="0.522" style="stop-color:#381B12"/>
		<stop  offset="1" style="stop-color:#391E13"/>
	</radialGradient>
	<path class="st9" d="M17,7.4c-0.1-1.3-0.8-1.7-1.2-1.8c0,0,0,0-0.1,0c-0.8-0.1-1.3,1.1-0.6,1.1c0.5,0.1,0.8,2.2,0.8,3.3v0.5
		c0,0.4,0.5,0.5,0.6,0.1C16.8,9.6,17.1,8.3,17,7.4z"/>
</g>
<g>
	
		<radialGradient id="SVGID_9_" cx="-515.0389" cy="785.5123" r="1" gradientTransform="matrix(-9.454793e-02 2.7669 1.5696 5.363411e-02 -1265.8561 1389.7305)" gradientUnits="userSpaceOnUse">
		<stop  offset="0" style="stop-color:#693626"/>
		<stop  offset="0.522" style="stop-color:#381B12"/>
		<stop  offset="1" style="stop-color:#391E13"/>
	</radialGradient>
	<path class="st10" d="M16.8,7.6c0,0.3-0.2,0.9-0.4,1.5c-0.1,0.3-0.6,0.2-0.6-0.1c0-0.2,0-0.4-0.1-0.5c-0.1-0.4-0.3-0.9-0.4-1.3
		c-0.1-0.4,0.2-1.3,0.8-1.2C16.6,6.1,16.8,6.8,16.8,7.6z"/>
</g>
<g>
	
		<radialGradient id="SVGID_10_" cx="-484.9908" cy="570.6517" r="1" gradientTransform="matrix(0.1872 2.6293 3.1897 -0.227 -1714.6121 1409.4795)" gradientUnits="userSpaceOnUse">
		<stop  offset="0" style="stop-color:#6D4833"/>
		<stop  offset="0.4461" style="stop-color:#432319"/>
	</radialGradient>
	<path class="st11" d="M15.4,7.3c0.3-0.2,1.1-1,0.7-2c-0.4-1.3-2.6-0.4-2.1,0.9c0,0,0,0,0,0C14.2,6.7,15,7.5,15.4,7.3z"/>
</g>
<g>
	
		<radialGradient id="SVGID_11_" cx="-503.615" cy="527.0146" r="1" gradientTransform="matrix(0.2437 3.0608 4.1489 -0.3304 -2050.7783 1719.4963)" gradientUnits="userSpaceOnUse">
		<stop  offset="0" style="stop-color:#6D4833"/>
		<stop  offset="0.4461" style="stop-color:#432319"/>
	</radialGradient>
	<path class="st12" d="M14.6,5.9c0.4-1.3-0.7-2.3-1.4-2.5c-0.8-0.1-1.3,0.7-1.4,1.5c-0.1,0.6-0.1,1.1-0.1,1.3c0,0.3,0.7,0.7,1.1,0.7
		C13.2,7,14.2,7.2,14.6,5.9z"/>
</g>
<g>
	
		<radialGradient id="SVGID_12_" cx="-333.8864" cy="1430.2882" r="1" gradientTransform="matrix(4.438631e-02 1.2109 0.5781 -2.119140e-02 -802.0024 445.7677)" gradientUnits="userSpaceOnUse">
		<stop  offset="0" style="stop-color:#373C66"/>
		<stop  offset="0.5698" style="stop-color:#171129"/>
	</radialGradient>
	<path class="st13" d="M10.1,11L10.1,11c0.2,0,0.3,0.1,0.3,0.3V12c0,0.2-0.1,0.3-0.3,0.3l0,0c-0.2,0-0.3-0.1-0.3-0.3v-0.7
		C9.8,11.1,9.9,11,10.1,11z"/>
</g>
<g>
	
		<radialGradient id="SVGID_13_" cx="-327.2049" cy="1485.8696" r="1" gradientTransform="matrix(4.216659e-02 1.1821 0.5492 -1.959286e-02 -789.6835 427.0739)" gradientUnits="userSpaceOnUse">
		<stop  offset="0" style="stop-color:#373C66"/>
		<stop  offset="0.5698" style="stop-color:#171129"/>
	</radialGradient>
	<path class="st14" d="M12.7,11L12.7,11c0.2,0,0.3,0.1,0.3,0.3v0.7c0,0.2-0.1,0.3-0.3,0.3l0,0c-0.2,0-0.3-0.1-0.3-0.3v-0.7
		C12.4,11.2,12.5,11,12.7,11z"/>
</g>
<g>
	
		<linearGradient id="SVGID_14_" gradientUnits="userSpaceOnUse" x1="13.1755" y1="41.2588" x2="13.1" y2="40.5964" gradientTransform="matrix(1 0 0 -1 0 51.2148)">
		<stop  offset="0" style="stop-color:#754940"/>
		<stop  offset="0.6846" style="stop-color:#3C1B14"/>
	</linearGradient>
	<path class="st15" d="M12.5,9.8c-0.2-0.1-0.3,0-0.4,0c0,0,0,0.1,0,0.1c0,0.1,0.2,0.4,0.9,0.4c0.8,0,1.2-0.6,1.3-0.7
		c0.1-0.1,0.1-0.2,0-0.2c-0.1,0-0.2,0.2-0.8,0.5C13,10.1,12.7,9.9,12.5,9.8z"/>
</g>
<g>
	
		<linearGradient id="SVGID_15_" gradientUnits="userSpaceOnUse" x1="9.5379" y1="41.7028" x2="9.5709" y2="41.1547" gradientTransform="matrix(1 0 0 -1 0 51.2148)">
		<stop  offset="0" style="stop-color:#754940"/>
		<stop  offset="0.6846" style="stop-color:#3C1B14"/>
	</linearGradient>
	<path class="st16" d="M10,9.7c-0.3-0.1-0.7-0.1-0.9,0C9,9.7,8.7,9.7,8.5,9.8c-0.2,0.1-0.1,0-0.1-0.1c0.3-0.3,0.7-0.4,1.1-0.5
		c0.4-0.1,1.1,0,1.2,0.3S10.4,9.8,10,9.7z"/>
</g>
<g>
	
		<radialGradient id="SVGID_16_" cx="-361.6884" cy="1435.6367" r="1.0006" gradientTransform="matrix(7.679577e-17 1.2542 0.5876 -3.598025e-17 -832.1149 466.049)" gradientUnits="userSpaceOnUse">
		<stop  offset="0" style="stop-color:#FFEEE4"/>
		<stop  offset="0.4545" style="stop-color:#FFDCC8"/>
		<stop  offset="1" style="stop-color:#F0D5C5"/>
	</radialGradient>
	<path class="st17" d="M11.4,13.7c-0.3,0-0.4-0.3-0.5-0.4V13c0.1-0.5,0.2-1.6,0.3-1.8c0.1-0.2,0.3,0,0.4,0.1
		c0.1,0.6,0.5,1.8,0.4,1.8c-0.1,0-0.1,0.1-0.1,0.1C11.9,13.5,11.8,13.7,11.4,13.7z"/>
</g>
<g>
	
		<radialGradient id="SVGID_17_" cx="-525.3104" cy="505.3806" r="1" gradientTransform="matrix(0.288 3.6981 4.9044 -0.382 -2316.8137 2138.9666)" gradientUnits="userSpaceOnUse">
		<stop  offset="0" style="stop-color:#6D4833"/>
		<stop  offset="0.4461" style="stop-color:#432319"/>
	</radialGradient>
	<path class="st18" d="M9,5.6c0,1.1,0.7,1.3,1.1,1.4c1,0.1,1.6-0.1,1.9-0.4c0.3-0.2,0.6-1.6,0.6-2.3c0-0.7-0.6-1.7-2.1-1.6
		C9,2.8,9,4.3,9,5.6z"/>
</g>
<g>
	<ellipse class="st19" cx="11.5" cy="12.7" rx="0.2" ry="0.2"/>
</g>
</svg>
