<svg width="17" height="17" viewBox="0 0 17 17" fill="none" xmlns="http://www.w3.org/2000/svg">
<path d="M13.1042 8.49999C13.1042 8.6956 12.9456 8.85416 12.75 8.85416C12.5544 8.85416 12.3958 8.6956 12.3958 8.49999C12.3958 8.30439 12.5544 8.14583 12.75 8.14583V8.14583C12.9456 8.14583 13.1042 8.30439 13.1042 8.49999" stroke="#DCD9D9" stroke-width="1.5" stroke-linecap="round" stroke-linejoin="round"/>
<path d="M8.85418 8.49999C8.85418 8.6956 8.69561 8.85416 8.50001 8.85416C8.30441 8.85416 8.14584 8.6956 8.14584 8.49999C8.14584 8.30439 8.30441 8.14583 8.50001 8.14583V8.14583C8.69561 8.14583 8.85418 8.30439 8.85418 8.49999" stroke="#DCD9D9" stroke-width="1.5" stroke-linecap="round" stroke-linejoin="round"/>
<path d="M4.60418 8.49999C4.60418 8.6956 4.44561 8.85416 4.25001 8.85416C4.05441 8.85416 3.89584 8.6956 3.89584 8.49999C3.89584 8.30439 4.05441 8.14583 4.25001 8.14583V8.14583C4.44561 8.14583 4.60418 8.30439 4.60418 8.49999" stroke="#DCD9D9" stroke-width="1.5" stroke-linecap="round" stroke-linejoin="round"/>
</svg>
